<mxfile host="Electron" agent="Mozilla/5.0 (Windows NT 10.0; Win64; x64) AppleWebKit/537.36 (KHTML, like Gecko) draw.io/26.1.1 Chrome/132.0.6834.210 Electron/34.3.3 Safari/537.36" version="26.1.1" pages="4">
  <diagram name="static" id="plFs_38kc7ym2z5vYw4k">
    <mxGraphModel dx="1098" dy="788" grid="1" gridSize="10" guides="1" tooltips="1" connect="1" arrows="1" fold="1" page="1" pageScale="1" pageWidth="850" pageHeight="1100" math="0" shadow="0">
      <root>
        <mxCell id="0" />
        <mxCell id="1" parent="0" />
        <mxCell id="NALFCFV1snvfW5iD0a4g-2" value="" style="rounded=0;whiteSpace=wrap;html=1;" vertex="1" parent="1">
          <mxGeometry x="140" y="240" width="440" height="240" as="geometry" />
        </mxCell>
        <mxCell id="NALFCFV1snvfW5iD0a4g-6" value="" style="group" vertex="1" connectable="0" parent="1">
          <mxGeometry x="140" y="240" width="130" height="130" as="geometry" />
        </mxCell>
        <mxCell id="NALFCFV1snvfW5iD0a4g-4" value="" style="whiteSpace=wrap;html=1;aspect=fixed;fillColor=#ADD8E6;strokeColor=none;" vertex="1" parent="NALFCFV1snvfW5iD0a4g-6">
          <mxGeometry width="130" height="130" as="geometry" />
        </mxCell>
        <mxCell id="NALFCFV1snvfW5iD0a4g-5" value="&lt;font&gt;Static&lt;/font&gt;" style="rounded=0;whiteSpace=wrap;html=1;strokeColor=none;fillColor=none;fontSize=18;" vertex="1" parent="NALFCFV1snvfW5iD0a4g-6">
          <mxGeometry x="27.5" y="37.5" width="75" height="55" as="geometry" />
        </mxCell>
      </root>
    </mxGraphModel>
  </diagram>
  <diagram name="Relative" id="EOcUDVPXKCsMFWDS9vNM">
    <mxGraphModel dx="1098" dy="788" grid="1" gridSize="10" guides="1" tooltips="1" connect="1" arrows="1" fold="1" page="1" pageScale="1" pageWidth="850" pageHeight="1100" math="0" shadow="0">
      <root>
        <mxCell id="BeO4oAlNx_TT7jLnlcFB-0" />
        <mxCell id="BeO4oAlNx_TT7jLnlcFB-1" parent="BeO4oAlNx_TT7jLnlcFB-0" />
        <mxCell id="BeO4oAlNx_TT7jLnlcFB-2" value="" style="rounded=0;whiteSpace=wrap;html=1;" vertex="1" parent="BeO4oAlNx_TT7jLnlcFB-1">
          <mxGeometry x="140" y="240" width="520" height="300" as="geometry" />
        </mxCell>
        <mxCell id="BeO4oAlNx_TT7jLnlcFB-3" value="" style="group" vertex="1" connectable="0" parent="BeO4oAlNx_TT7jLnlcFB-1">
          <mxGeometry x="220" y="290" width="130" height="130" as="geometry" />
        </mxCell>
        <mxCell id="BeO4oAlNx_TT7jLnlcFB-4" value="" style="whiteSpace=wrap;html=1;aspect=fixed;fillColor=#ADD8E6;strokeColor=none;" vertex="1" parent="BeO4oAlNx_TT7jLnlcFB-3">
          <mxGeometry width="130" height="130" as="geometry" />
        </mxCell>
        <mxCell id="BeO4oAlNx_TT7jLnlcFB-5" value="&lt;font&gt;Static&lt;/font&gt;" style="rounded=0;whiteSpace=wrap;html=1;strokeColor=none;fillColor=none;fontSize=18;" vertex="1" parent="BeO4oAlNx_TT7jLnlcFB-3">
          <mxGeometry x="27.5" y="37.5" width="75" height="55" as="geometry" />
        </mxCell>
        <mxCell id="BeO4oAlNx_TT7jLnlcFB-6" value="" style="endArrow=classic;startArrow=classic;html=1;rounded=0;dashed=1;" edge="1" parent="BeO4oAlNx_TT7jLnlcFB-1">
          <mxGeometry width="50" height="50" relative="1" as="geometry">
            <mxPoint x="280" y="290" as="sourcePoint" />
            <mxPoint x="280" y="240" as="targetPoint" />
          </mxGeometry>
        </mxCell>
        <mxCell id="BeO4oAlNx_TT7jLnlcFB-7" value="&lt;font style=&quot;font-size: 18px;&quot;&gt;10px&lt;/font&gt;" style="rounded=0;whiteSpace=wrap;html=1;fillColor=none;strokeColor=none;" vertex="1" parent="BeO4oAlNx_TT7jLnlcFB-1">
          <mxGeometry x="290" y="260" width="60" height="20" as="geometry" />
        </mxCell>
        <mxCell id="BeO4oAlNx_TT7jLnlcFB-8" value="" style="endArrow=classic;startArrow=classic;html=1;rounded=0;entryX=0;entryY=0.5;entryDx=0;entryDy=0;" edge="1" parent="BeO4oAlNx_TT7jLnlcFB-1" target="BeO4oAlNx_TT7jLnlcFB-4">
          <mxGeometry width="50" height="50" relative="1" as="geometry">
            <mxPoint x="140" y="354.5" as="sourcePoint" />
            <mxPoint x="210" y="354.5" as="targetPoint" />
            <Array as="points">
              <mxPoint x="150" y="354.5" />
            </Array>
          </mxGeometry>
        </mxCell>
        <mxCell id="BeO4oAlNx_TT7jLnlcFB-9" value="&lt;font style=&quot;font-size: 18px;&quot;&gt;20px&lt;/font&gt;" style="rounded=0;whiteSpace=wrap;html=1;fillColor=none;strokeColor=none;" vertex="1" parent="BeO4oAlNx_TT7jLnlcFB-1">
          <mxGeometry x="150" y="320" width="60" height="20" as="geometry" />
        </mxCell>
      </root>
    </mxGraphModel>
  </diagram>
  <diagram id="Teofn9Wjjqk5otoXFC0C" name="clear-botth">
    <mxGraphModel dx="1098" dy="788" grid="1" gridSize="10" guides="1" tooltips="1" connect="1" arrows="1" fold="1" page="1" pageScale="1" pageWidth="850" pageHeight="1100" math="0" shadow="0">
      <root>
        <mxCell id="0" />
        <mxCell id="1" parent="0" />
        <mxCell id="bhaUHMoUacEJdti6ifZY-1" value="" style="rounded=0;whiteSpace=wrap;html=1;strokeWidth=3;" vertex="1" parent="1">
          <mxGeometry x="70" y="110" width="690" height="90" as="geometry" />
        </mxCell>
        <mxCell id="bhaUHMoUacEJdti6ifZY-4" value="" style="rounded=0;whiteSpace=wrap;html=1;strokeWidth=3;" vertex="1" parent="1">
          <mxGeometry x="70" y="220" width="170" height="360" as="geometry" />
        </mxCell>
        <mxCell id="bhaUHMoUacEJdti6ifZY-5" value="" style="rounded=0;whiteSpace=wrap;html=1;strokeWidth=3;" vertex="1" parent="1">
          <mxGeometry x="260" y="220" width="500" height="360" as="geometry" />
        </mxCell>
        <mxCell id="bhaUHMoUacEJdti6ifZY-7" value="" style="rounded=0;whiteSpace=wrap;html=1;strokeWidth=3;" vertex="1" parent="1">
          <mxGeometry x="70" y="600" width="690" height="90" as="geometry" />
        </mxCell>
        <mxCell id="bhaUHMoUacEJdti6ifZY-8" value="&lt;font style=&quot;font-size: 24px;&quot;&gt;Header&lt;/font&gt;" style="rounded=0;whiteSpace=wrap;html=1;strokeColor=none;fillColor=none;" vertex="1" parent="1">
          <mxGeometry x="355" y="125" width="120" height="60" as="geometry" />
        </mxCell>
        <mxCell id="bhaUHMoUacEJdti6ifZY-9" value="&lt;font style=&quot;font-size: 24px;&quot;&gt;Footer&lt;/font&gt;" style="rounded=0;whiteSpace=wrap;html=1;strokeColor=none;fillColor=none;" vertex="1" parent="1">
          <mxGeometry x="355" y="615" width="120" height="60" as="geometry" />
        </mxCell>
        <mxCell id="bhaUHMoUacEJdti6ifZY-10" value="&lt;font style=&quot;font-size: 24px;&quot;&gt;Sidebar&lt;/font&gt;" style="rounded=0;whiteSpace=wrap;html=1;strokeColor=none;fillColor=none;" vertex="1" parent="1">
          <mxGeometry x="95" y="370" width="120" height="60" as="geometry" />
        </mxCell>
        <mxCell id="bhaUHMoUacEJdti6ifZY-11" value="&lt;font style=&quot;font-size: 24px;&quot;&gt;Main content&lt;/font&gt;" style="rounded=0;whiteSpace=wrap;html=1;strokeColor=none;fillColor=none;" vertex="1" parent="1">
          <mxGeometry x="425" y="370" width="170" height="60" as="geometry" />
        </mxCell>
      </root>
    </mxGraphModel>
  </diagram>
  <diagram id="bkrJLBF5QisgHDtviqP5" name="Page-4">
    <mxGraphModel dx="1948" dy="788" grid="1" gridSize="10" guides="1" tooltips="1" connect="1" arrows="1" fold="1" page="1" pageScale="1" pageWidth="850" pageHeight="1100" math="0" shadow="0">
      <root>
        <mxCell id="0" />
        <mxCell id="1" parent="0" />
        <mxCell id="rqAo383Oj4OzTsnTpEbv-3" value="" style="rounded=0;whiteSpace=wrap;html=1;" vertex="1" parent="1">
          <mxGeometry y="80" width="960" height="440" as="geometry" />
        </mxCell>
        <mxCell id="rqAo383Oj4OzTsnTpEbv-1" value="" style="shape=image;verticalLabelPosition=bottom;labelBackgroundColor=default;verticalAlign=top;aspect=fixed;imageAspect=0;image=https://miro.medium.com/v2/resize:fit:1183/1*ubDrM-3m22gLF_pZ4DCdMw.png;" vertex="1" parent="1">
          <mxGeometry x="-70" y="50" width="1183" height="488" as="geometry" />
        </mxCell>
      </root>
    </mxGraphModel>
  </diagram>
</mxfile>
